<svg width="65" height="25" viewBox="0 0 65 25" fill="none" xmlns="http://www.w3.org/2000/svg">
<rect x="0.375" y="0.375" width="64.25" height="24.25" rx="1.625" fill="white"/>
<path d="M26.2 9.17358H23.4776C23.3875 9.17353 23.3003 9.20566 23.2317 9.26419C23.1632 9.32273 23.1178 9.40381 23.1038 9.49284L22.0027 16.4738C21.9977 16.5062 21.9997 16.5393 22.0086 16.5709C22.0176 16.6024 22.0333 16.6316 22.0546 16.6565C22.076 16.6814 22.1024 16.7014 22.1322 16.7151C22.162 16.7288 22.1944 16.7358 22.2272 16.7358H23.5269C23.6171 16.7358 23.7044 16.7036 23.7729 16.645C23.8414 16.5864 23.8868 16.5052 23.9007 16.4161L24.1977 14.5332C24.2116 14.4442 24.2569 14.3631 24.3254 14.3045C24.3938 14.2459 24.481 14.2136 24.5711 14.2136H25.4329C27.2262 14.2136 28.2612 13.3458 28.5315 11.6261C28.6533 10.8738 28.5367 10.2826 28.1844 9.86862C27.7975 9.41402 27.1112 9.17358 26.2 9.17358V9.17358ZM26.5141 11.7232C26.3652 12.7001 25.6188 12.7001 24.8971 12.7001H24.4863L24.7745 10.8757C24.7829 10.8224 24.8101 10.7738 24.8512 10.7387C24.8923 10.7036 24.9446 10.6843 24.9986 10.6843H25.1869C25.6785 10.6843 26.1423 10.6843 26.3819 10.9645C26.5248 11.1317 26.5686 11.3801 26.5141 11.7232V11.7232ZM34.3378 11.6918H33.0341C32.9801 11.6918 32.9278 11.7111 32.8867 11.7462C32.8456 11.7813 32.8184 11.8299 32.81 11.8833L32.7523 12.2479L32.6611 12.1157C32.3789 11.7061 31.7495 11.5692 31.1214 11.5692C29.6807 11.5692 28.4503 12.6603 28.2107 14.1909C28.0861 14.9544 28.2632 15.6845 28.6963 16.1936C29.0936 16.6617 29.662 16.8568 30.3384 16.8568C31.4991 16.8568 32.1428 16.1104 32.1428 16.1104L32.0847 16.4726C32.0795 16.505 32.0814 16.5382 32.0903 16.5697C32.0991 16.6013 32.1147 16.6306 32.136 16.6556C32.1573 16.6805 32.1837 16.7006 32.2135 16.7144C32.2432 16.7282 32.2756 16.7353 32.3084 16.7354H33.4827C33.5729 16.7354 33.6601 16.7032 33.7287 16.6446C33.7972 16.586 33.8426 16.5048 33.8565 16.4157L34.5611 11.9537C34.5663 11.9214 34.5644 11.8883 34.5556 11.8568C34.5467 11.8253 34.5312 11.7961 34.5099 11.7712C34.4887 11.7463 34.4623 11.7263 34.4326 11.7126C34.4029 11.6989 34.3705 11.6918 34.3378 11.6918V11.6918ZM32.5206 14.2291C32.3948 14.9739 31.8037 15.4739 31.0497 15.4739C30.6711 15.4739 30.3686 15.3525 30.1743 15.1224C29.9817 14.8939 29.9084 14.5687 29.9697 14.2064C30.0872 13.468 30.6883 12.9517 31.4307 12.9517C31.8009 12.9517 32.1018 13.0747 32.3001 13.3068C32.4987 13.5412 32.5775 13.8684 32.5206 14.2291V14.2291ZM41.281 11.6918H39.9709C39.9091 11.6919 39.8483 11.7071 39.7937 11.736C39.7391 11.7649 39.6924 11.8067 39.6576 11.8578L37.8508 14.5193L37.0849 11.9617C37.0614 11.8837 37.0134 11.8153 36.948 11.7667C36.8826 11.7181 36.8033 11.6918 36.7218 11.6918H35.4345C35.3983 11.6917 35.3627 11.7002 35.3305 11.7167C35.2984 11.7331 35.2706 11.7571 35.2495 11.7864C35.2285 11.8158 35.2147 11.8497 35.2094 11.8855C35.2041 11.9212 35.2075 11.9577 35.2191 11.9919L36.6621 16.2266L35.3055 18.1418C35.2814 18.1757 35.2671 18.2156 35.2642 18.2572C35.2612 18.2987 35.2698 18.3403 35.2889 18.3773C35.308 18.4143 35.337 18.4453 35.3725 18.4669C35.4081 18.4886 35.449 18.5 35.4906 18.5H36.7991C36.8602 18.5001 36.9204 18.4854 36.9745 18.4571C37.0287 18.4288 37.0751 18.3878 37.11 18.3376L41.4673 12.0481C41.4909 12.014 41.5047 11.9742 41.5073 11.9329C41.5099 11.8915 41.5011 11.8503 41.4819 11.8135C41.4627 11.7768 41.4339 11.7461 41.3984 11.7246C41.363 11.7032 41.3224 11.6918 41.281 11.6918V11.6918Z" fill="#253B80"/>
<path d="M45.6175 9.17355H42.8947C42.8047 9.17359 42.7176 9.20577 42.6491 9.26429C42.5807 9.32282 42.5354 9.40385 42.5213 9.49281L41.4203 16.4738C41.4151 16.5061 41.4171 16.5392 41.426 16.5707C41.4349 16.6022 41.4505 16.6314 41.4718 16.6563C41.493 16.6812 41.5194 16.7012 41.5492 16.7149C41.5789 16.7286 41.6112 16.7357 41.644 16.7357H43.0412C43.1043 16.7356 43.1652 16.7131 43.2131 16.672C43.2609 16.631 43.2926 16.5743 43.3024 16.512L43.6148 14.5332C43.6288 14.4442 43.6741 14.363 43.7425 14.3044C43.811 14.2458 43.8981 14.2136 43.9882 14.2135H44.8497C46.6434 14.2135 47.678 13.3458 47.9487 11.6261C48.0709 10.8737 47.9534 10.2826 47.6011 9.86859C47.2146 9.41399 46.5287 9.17355 45.6175 9.17355V9.17355ZM45.9316 11.7232C45.7831 12.7001 45.0368 12.7001 44.3147 12.7001H43.9042L44.1928 10.8757C44.2011 10.8223 44.2282 10.7737 44.2693 10.7386C44.3103 10.7034 44.3625 10.6842 44.4166 10.6842H44.6048C45.0961 10.6842 45.5602 10.6842 45.7999 10.9645C45.9428 11.1317 45.9862 11.3801 45.9316 11.7232V11.7232ZM53.7549 11.6918H52.452C52.398 11.6916 52.3457 11.7109 52.3047 11.746C52.2636 11.7811 52.2365 11.8298 52.2283 11.8832L52.1706 12.2479L52.0791 12.1157C51.7968 11.7061 51.1679 11.5692 50.5397 11.5692C49.0991 11.5692 47.869 12.6603 47.6294 14.1909C47.5052 14.9544 47.6815 15.6844 48.1146 16.1936C48.5127 16.6617 49.0804 16.8567 49.7567 16.8567C50.9175 16.8567 51.5612 16.1104 51.5612 16.1104L51.503 16.4726C51.4979 16.5051 51.4998 16.5383 51.5087 16.5699C51.5176 16.6015 51.5332 16.6309 51.5546 16.6558C51.5759 16.6808 51.6025 16.7009 51.6323 16.7146C51.6622 16.7283 51.6947 16.7354 51.7276 16.7353H52.9015C52.9916 16.7353 53.0787 16.7031 53.1472 16.6444C53.2156 16.5858 53.2609 16.5047 53.2749 16.4157L53.9798 11.9537C53.9848 11.9213 53.9828 11.8882 53.9738 11.8566C53.9647 11.8251 53.949 11.7959 53.9276 11.771C53.9063 11.7461 53.8798 11.7261 53.85 11.7125C53.8202 11.6988 53.7877 11.6917 53.7549 11.6918V11.6918ZM51.9377 14.2291C51.8127 14.9739 51.2208 15.4738 50.4669 15.4738C50.0891 15.4738 49.7858 15.3524 49.5915 15.1223C49.3988 14.8939 49.3264 14.5686 49.3869 14.2064C49.5051 13.468 50.1054 12.9517 50.8478 12.9517C51.218 12.9517 51.519 13.0747 51.7172 13.3067C51.9166 13.5412 51.9955 13.8684 51.9377 14.2291V14.2291ZM55.2919 9.36503L54.1745 16.4738C54.1694 16.5061 54.1713 16.5392 54.1802 16.5707C54.1891 16.6022 54.2047 16.6314 54.226 16.6563C54.2473 16.6812 54.2737 16.7012 54.3034 16.7149C54.3331 16.7286 54.3655 16.7357 54.3982 16.7357H55.5216C55.7083 16.7357 55.8667 16.6004 55.8954 16.4161L56.9972 9.43549C57.0024 9.40313 57.0004 9.37005 56.9915 9.33852C56.9826 9.30698 56.967 9.27775 56.9458 9.25282C56.9245 9.2279 56.8981 9.20787 56.8684 9.19412C56.8386 9.18037 56.8063 9.17321 56.7735 9.17316H55.5156C55.4616 9.17335 55.4094 9.19276 55.3684 9.22792C55.3274 9.26308 55.3003 9.31168 55.2919 9.36503Z" fill="#179BD7"/>
<path fill-rule="evenodd" clip-rule="evenodd" d="M17.274 7.8295C16.765 7.24875 15.8458 7 14.6693 7H11.255C11.0148 7 10.81 7.175 10.7725 7.413L9.3508 16.44C9.34415 16.4819 9.34666 16.5247 9.35814 16.5655C9.36963 16.6063 9.38983 16.6441 9.41735 16.6764C9.44487 16.7086 9.47905 16.7345 9.51754 16.7523C9.55602 16.77 9.59791 16.7792 9.6403 16.7793H11.7483L11.6028 17.703C11.597 17.7396 11.5992 17.7771 11.6092 17.8128C11.6193 17.8485 11.6369 17.8816 11.661 17.9098C11.6851 17.9381 11.715 17.9607 11.7486 17.9763C11.7823 17.9919 11.819 18 11.856 18H13.6328C13.7346 17.9999 13.8331 17.9635 13.9105 17.8973C13.9878 17.831 14.039 17.7394 14.0548 17.6388L14.0723 17.5483L14.4068 15.4233L14.4285 15.3057C14.4443 15.2051 14.4955 15.1135 14.5729 15.0472C14.6502 14.981 14.7487 14.9446 14.8505 14.9445H15.1163C16.8375 14.9445 18.1853 14.2445 18.5793 12.2195C18.7435 11.3733 18.6588 10.667 18.2235 10.1702C18.0918 10.0202 17.9283 9.896 17.7373 9.7945C17.871 8.939 17.7363 8.357 17.274 7.8295V7.8295Z" fill="#009CDE"/>
<path fill-rule="evenodd" clip-rule="evenodd" d="M17.274 7.8295C16.765 7.24875 15.8458 7 14.6693 7H11.255C11.0148 7 10.81 7.175 10.7725 7.413L9.3508 16.44C9.34415 16.4819 9.34666 16.5247 9.35814 16.5655C9.36963 16.6063 9.38983 16.6441 9.41735 16.6764C9.44487 16.7086 9.47905 16.7345 9.51754 16.7523C9.55602 16.77 9.59791 16.7792 9.6403 16.7793H11.7483L12.2773 13.4175L12.261 13.523C12.2787 13.4081 12.3368 13.3033 12.425 13.2275C12.5132 13.1518 12.6255 13.1101 12.7418 13.11H13.7435C15.711 13.11 17.2518 12.3097 17.702 9.995C17.7149 9.92837 17.7265 9.86153 17.737 9.7945C17.8708 8.939 17.736 8.357 17.2738 7.8295H17.274Z" fill="#012169"/>
<path fill-rule="evenodd" clip-rule="evenodd" d="M13.084 9.48675C13.1403 9.45975 13.2028 9.44475 13.2688 9.44475H15.9448C16.2618 9.44475 16.5573 9.4655 16.8278 9.50925C16.905 9.52175 16.9803 9.536 17.0533 9.552C17.1591 9.57567 17.2638 9.60446 17.3668 9.63825C17.4942 9.68001 17.618 9.73228 17.7368 9.7945C17.8708 8.939 17.736 8.357 17.2738 7.8295C16.765 7.24875 15.8458 7 14.6693 7H11.255C11.0148 7 10.81 7.175 10.7725 7.413L9.3508 16.44C9.34415 16.4819 9.34666 16.5247 9.35814 16.5655C9.36963 16.6063 9.38983 16.6441 9.41735 16.6764C9.44487 16.7086 9.47905 16.7345 9.51754 16.7523C9.55603 16.77 9.59791 16.7792 9.6403 16.7793H11.7483L12.8465 9.80575C12.869 9.66275 12.9608 9.54575 13.084 9.4865V9.48675Z" fill="#003087"/>
<rect x="0.375" y="0.375" width="64.25" height="24.25" rx="1.625" stroke="#DCDCDC" stroke-width="0.75"/>
</svg>