<svg width="34" height="25" viewBox="0 0 34 25" fill="none" xmlns="http://www.w3.org/2000/svg">
<path d="M33.2559 21.1111C33.2559 22.2734 32.9589 23.1482 32.4585 23.7269C31.9643 24.2983 31.2342 24.625 30.2678 24.625H3.36309C2.39673 24.625 1.66661 24.2983 1.17246 23.7269C0.671992 23.1482 0.375 22.2734 0.375 21.1111V3.88889C0.375 2.72655 0.671992 1.85179 1.17246 1.27307C1.66661 0.701669 2.39673 0.375 3.36309 0.375H30.2678C31.2342 0.375 31.9643 0.701669 32.4585 1.27307C32.9589 1.85179 33.2559 2.72655 33.2559 3.88889V21.1111Z" fill="white" stroke="#DCDCDC" stroke-width="0.75"/>
<path d="M4.08447 14.2939C4.08447 13.7416 4.53219 13.2939 5.08447 13.2939H28.5465C29.0988 13.2939 29.5465 13.7416 29.5465 14.2939V14.5742C29.5465 15.1265 29.0988 15.5742 28.5465 15.5742H5.08447C4.53219 15.5742 4.08447 15.1265 4.08447 14.5742V14.2939Z" fill="#888888"/>
<path d="M4.08447 18.1697C4.08447 17.6175 4.53219 17.1697 5.08447 17.1697H11.0655C11.6178 17.1697 12.0655 17.6175 12.0655 18.1697V18.45C12.0655 19.0023 11.6178 19.45 11.0655 19.45H5.08447C4.53219 19.45 4.08447 19.0023 4.08447 18.45V18.1697Z" fill="#888888"/>
<path d="M14.916 18.1697C14.916 17.6175 15.3637 17.1697 15.916 17.1697H19.1607C19.713 17.1697 20.1607 17.6175 20.1607 18.1697V18.45C20.1607 19.0023 19.713 19.45 19.1607 19.45H15.916C15.3637 19.45 14.916 19.0023 14.916 18.45V18.1697Z" fill="#888888"/>
</svg>